<svg width="623" height="623" viewBox="0 0 623 623" fill="none" xmlns="http://www.w3.org/2000/svg">
<path d="M622.228 310.108C622.5 371.617 604.526 431.827 570.579 483.122C536.633 534.417 488.238 574.494 431.515 598.285C374.792 622.077 312.288 628.514 251.907 616.783C191.525 605.053 135.978 575.68 92.2891 532.381C48.6002 489.082 18.7319 433.8 6.46082 373.526C-5.81024 313.252 0.0671126 250.693 23.3497 193.759C46.6323 136.825 86.2744 88.0733 137.263 53.6689C188.252 19.2644 248.298 0.752069 309.808 0.47279C392.297 0.10695 471.552 32.5227 530.142 90.5897C588.731 148.657 621.855 227.619 622.228 310.108Z" fill="black"/>
<path d="M598.798 310.173C599.057 367.05 582.444 422.727 551.06 470.162C519.675 517.598 474.93 554.662 422.481 576.667C370.032 598.672 312.236 604.631 256.401 593.789C200.566 582.947 149.2 555.791 108.798 515.756C68.3968 475.721 40.7741 424.604 29.4235 368.871C18.0729 313.137 23.5041 255.289 45.0303 202.642C66.5566 149.994 103.211 104.913 150.359 73.0975C197.506 41.2823 253.029 24.1622 309.906 23.9024C347.672 23.7299 385.102 30.9977 420.059 45.2908C455.016 59.584 486.816 80.6225 513.642 107.205C540.468 133.788 561.795 165.394 576.407 200.22C591.018 235.045 598.627 272.407 598.798 310.173Z" fill="white"/>
<path d="M316.46 42.5478C334.743 39.2842 353.459 39.2842 371.742 42.5478C390.199 45.4726 408.041 51.453 424.533 60.2431C440.917 69.2546 455.106 81.4774 469.197 93.0121C483.287 104.547 497.345 116.213 510.715 129.058C524.348 141.688 536.248 156.067 546.106 171.822C556.269 187.469 564.593 204.238 570.912 221.794C583.206 256.861 586.705 294.41 581.103 331.145H579.268C573.871 296.05 564.844 261.611 552.332 228.381C546.336 211.948 539.275 195.923 531.196 180.407C522.705 164.937 513.362 149.949 503.211 135.514C492.856 120.903 480.169 108.094 465.658 97.5998C451.075 87.212 434.298 80.4616 418.044 74.0716C401.791 67.6816 385.537 61.3245 368.661 56.4419C351.785 51.5593 334.516 47.9219 316.526 44.3829L316.46 42.5478Z" fill="black"/>
<path d="M457.039 208.589C436.166 202.526 414.44 193.974 392.615 185.323C391.37 179.818 386.488 172.969 376.657 164.613C362.337 152.193 335.466 152.521 312.233 158.059C286.608 152.029 261.277 149.899 236.864 155.732C38.1198 210.457 150.845 344.253 77.8359 478.606C88.2237 500.627 200.196 629.343 362.206 594.707C362.206 594.707 306.826 461.566 431.84 397.666C533.26 345.662 606.565 249.386 457.039 208.589Z" fill="black"/>
<path d="M481.583 296.115C481.603 298.503 480.913 300.843 479.601 302.838C478.29 304.833 476.415 306.394 474.215 307.323C472.015 308.252 469.589 308.506 467.245 308.055C464.9 307.603 462.742 306.466 461.044 304.787C459.347 303.108 458.186 300.962 457.709 298.622C457.232 296.283 457.46 293.854 458.365 291.644C459.27 289.435 460.81 287.543 462.791 286.21C464.772 284.876 467.104 284.161 469.492 284.154C471.071 284.146 472.636 284.448 474.099 285.045C475.561 285.641 476.892 286.52 478.015 287.63C479.138 288.741 480.031 290.062 480.643 291.518C481.255 292.974 481.575 294.536 481.583 296.115Z" fill="white"/>
<path d="M312.233 157.994C326.717 159.042 379.115 176.148 392.615 185.323C381.441 152.554 343.462 148.294 312.233 157.994Z" fill="white"/>
<path d="M326.029 240.637C326.029 251.655 322.762 262.425 316.64 271.586C310.519 280.747 301.819 287.888 291.64 292.104C281.46 296.32 270.26 297.424 259.453 295.274C248.647 293.125 238.721 287.819 230.93 280.028C223.139 272.237 217.834 262.311 215.684 251.505C213.535 240.699 214.638 229.498 218.854 219.319C223.071 209.14 230.211 200.439 239.372 194.318C248.533 188.197 259.303 184.93 270.321 184.93C285.096 184.93 299.265 190.799 309.712 201.246C320.16 211.693 326.029 225.863 326.029 240.637Z" fill="white"/>
<path d="M309.546 241.129C309.552 248.868 307.263 256.436 302.968 262.875C298.673 269.314 292.564 274.334 285.415 277.3C278.267 280.266 270.399 281.046 262.807 279.54C255.215 278.034 248.24 274.31 242.765 268.839C237.29 263.369 233.56 256.397 232.048 248.807C230.535 241.216 231.308 233.347 234.269 226.196C237.229 219.045 242.244 212.932 248.679 208.631C255.114 204.331 262.68 202.035 270.42 202.035C280.788 202.044 290.73 206.164 298.065 213.493C305.4 220.822 309.529 230.76 309.546 241.129Z" fill="black"/>
<path d="M526.641 320.626C481.583 352.379 430.333 376.333 357.651 376.333C323.637 376.333 316.755 340.288 294.276 357.917C282.643 367.06 241.845 387.409 209.24 385.968C176.635 384.526 124.04 365.356 109.458 296.049C103.658 365.356 100.676 416.41 74.6573 474.936C126.498 557.94 250.07 621.938 362.206 594.412C350.18 510.261 423.713 427.814 465.166 385.64C480.83 369.681 511.043 343.597 526.641 320.495V320.626Z" fill="black"/>
<path d="M524.871 322.723C510.517 335.069 494.5 345.338 477.291 353.231C460.137 361.382 442.253 367.899 423.877 372.696C405.527 377.448 386.324 381.019 366.892 379.25C347.46 377.48 327.569 370.861 314.756 356.312L315.379 355.591C331.239 365.847 349.36 369.452 367.449 369.976C385.814 370.51 404.181 368.982 422.206 365.421C440.416 361.626 458.232 356.141 475.423 349.037C492.892 342.366 509.338 333.277 524.282 322.035L524.871 322.723Z" fill="white"/>
</svg>
