<svg width="640" height="640" viewBox="0 0 640 640" fill="none" xmlns="http://www.w3.org/2000/svg">
<mask id="path-1-inside-1_2043_3" fill="white">
<path d="M640 320C640 496.731 496.731 640 320 640C143.269 640 0 496.731 0 320C0 143.269 143.269 0 320 0C496.731 0 640 143.269 640 320ZM64 320C64 461.385 178.615 576 320 576C461.385 576 576 461.385 576 320C576 178.615 461.385 64 320 64C178.615 64 64 178.615 64 320Z"/>
</mask>
<path d="M640 320C640 496.731 496.731 640 320 640C143.269 640 0 496.731 0 320C0 143.269 143.269 0 320 0C496.731 0 640 143.269 640 320ZM64 320C64 461.385 178.615 576 320 576C461.385 576 576 461.385 576 320C576 178.615 461.385 64 320 64C178.615 64 64 178.615 64 320Z" fill="#FF9202"/>
<path d="M640 320C640 496.731 496.731 640 320 640C143.269 640 0 496.731 0 320C0 143.269 143.269 0 320 0C496.731 0 640 143.269 640 320ZM64 320C64 461.385 178.615 576 320 576C461.385 576 576 461.385 576 320C576 178.615 461.385 64 320 64C178.615 64 64 178.615 64 320Z" fill="url(#paint0_linear_2043_3)"/>
<path d="M640 320C640 496.731 496.731 640 320 640C143.269 640 0 496.731 0 320C0 143.269 143.269 0 320 0C496.731 0 640 143.269 640 320ZM64 320C64 461.385 178.615 576 320 576C461.385 576 576 461.385 576 320C576 178.615 461.385 64 320 64C178.615 64 64 178.615 64 320Z" stroke="white" stroke-width="2" mask="url(#path-1-inside-1_2043_3)"/>
<defs>
<linearGradient id="paint0_linear_2043_3" x1="639.73" y1="640" x2="69.42" y2="537.981" gradientUnits="userSpaceOnUse">
<stop stop-color="#DA7C00"/>
<stop offset="1" stop-color="#FF9202"/>
</linearGradient>
</defs>
</svg>
