<svg width="167" height="170" viewBox="0 0 167 170" fill="none" xmlns="http://www.w3.org/2000/svg">
<path d="M145.01 101.463C142.076 103.256 138.653 103.582 136.045 102.115C132.785 100.159 130.829 95.7581 130.829 89.7271V71.3081C130.829 62.5061 127.406 56.1491 121.538 54.5191C111.595 51.5851 104.097 63.8101 101.326 68.3741L83.7225 96.5731V61.8541C83.5595 53.8671 80.9515 49.1401 76.0615 47.6731C72.8015 46.6951 67.9115 47.1841 63.1845 54.3561L23.9015 117.274C18.6855 107.331 15.9145 96.2471 15.9145 85.0001C15.9145 47.0211 46.3955 16.2141 83.7225 16.2141C121.049 16.2141 151.53 47.0211 151.53 85.0001V85.1631V85.3261C151.856 92.6611 149.574 98.5291 145.01 101.463ZM166.526 85.0001V84.8371V84.6741C166.363 38.5451 129.199 0.89209 83.7225 0.89209C38.0825 0.89209 0.918457 38.5451 0.918457 85.0001C0.918457 131.292 38.0825 169.108 83.7225 169.108C104.749 169.108 124.635 161.121 139.957 146.614C143.054 143.68 143.217 138.953 140.283 135.856C137.512 132.759 132.785 132.596 129.688 135.367C129.688 135.367 129.688 135.367 129.525 135.53C117.137 147.266 100.511 153.949 83.3965 153.949C63.3475 153.949 45.4175 145.147 33.0295 131.129L68.4005 74.4051V100.648C68.4005 113.199 73.2905 117.274 77.3655 118.415C81.4405 119.556 87.6345 118.741 94.3175 108.146L113.714 76.6871C114.366 75.7091 114.855 74.7311 115.507 74.0791V90.0531C115.507 101.789 120.234 111.243 128.384 115.807C135.719 120.045 145.01 119.556 152.671 114.829C162.125 108.635 167.178 97.8771 166.526 85.0001Z" fill="#000"/>
</svg>
