<svg width="26" height="29" viewBox="0 0 26 29" fill="none" xmlns="http://www.w3.org/2000/svg">
<g clip-path="url(#clip0_395_15)">
<path fill-rule="evenodd" clip-rule="evenodd" d="M15.5057 10.0855C16.443 9.65366 17.6356 9.01795 18.8296 8.14695C19.0814 8.63006 19.109 9.05164 18.9793 9.39205C18.8873 9.63195 18.7141 9.84062 18.4864 10.0066C18.2397 10.186 17.9317 10.3166 17.5912 10.3872C16.945 10.5217 16.1907 10.4432 15.5057 10.0855ZM15.6682 14.5104L16.9089 15.1726C14.3755 16.4846 13.6868 18.9209 12.8687 21.2937C12.0507 18.9209 11.362 16.4846 8.8287 15.1726L10.0694 14.5104C10.1895 14.4685 10.292 14.3925 10.3625 14.2935C10.433 14.1944 10.4677 14.0772 10.4616 13.9588C10.348 11.7365 10.9973 10.7538 11.8732 10.1368C12.1874 9.91574 12.5304 9.80475 12.8687 9.80475C13.2071 9.80475 13.5501 9.91574 13.8644 10.1368C14.7403 10.7538 15.3896 11.7365 15.276 13.9588C15.2699 14.0772 15.3046 14.1944 15.3751 14.2935C15.4455 14.3925 15.5481 14.4685 15.6682 14.5104ZM12.8687 0C14.3029 0.0355795 15.7407 0.292847 16.9885 0.79332C17.8525 1.14034 18.6588 1.59872 19.3888 2.14685C19.7185 2.3943 19.99 2.63336 20.289 2.90856C21.0956 2.93432 22.2743 2.10636 22.8216 1.33164C21.8798 4.1846 17.5822 7.55371 14.6069 8.84288C14.6057 8.84241 14.6048 8.84175 14.6039 8.84118C14.07 8.46443 13.4694 8.27606 12.8687 8.27606C12.2681 8.27606 11.6676 8.46443 11.1337 8.84118C11.1328 8.84165 11.1319 8.8425 11.1307 8.84288C8.15533 7.55371 3.8578 4.1846 2.91602 1.33164C3.46315 2.10636 4.64189 2.93432 5.44845 2.90856C5.7476 2.63345 6.01908 2.3943 6.34866 2.14685C7.07872 1.59872 7.88498 1.14034 8.74904 0.79332C9.99692 0.292847 11.4347 0.0355795 12.8687 0ZM10.2318 10.0855C9.29464 9.65366 8.10191 9.01795 6.90795 8.14695C6.65619 8.63006 6.62862 9.05164 6.75822 9.39205C6.85025 9.63195 7.02347 9.84062 7.25113 10.0066C7.49789 10.186 7.80592 10.3166 8.14644 10.3872C8.79255 10.5217 9.54681 10.4432 10.2318 10.0855Z" fill="black"/>
<path fill-rule="evenodd" clip-rule="evenodd" d="M20.1376 7.07959C20.795 6.46662 21.3742 5.78816 21.8399 5.18274L22.0764 5.59412C22.838 7.00192 23.2336 8.40405 23.2336 9.98201L23.232 12.486L23.2463 13.784C23.3014 16.9707 24.0476 20.1948 25.738 23.1454L22.2013 20.5102L19.6989 24.2625L17.07 21.9757L12.869 28.2752L8.66798 21.9758L6.03913 24.2626L3.53672 20.5103L0 23.1455C1.69033 20.1949 2.43653 16.9708 2.49178 13.7841L2.50608 12.4861L2.50445 9.9821C2.50445 8.40405 2.90002 7.00192 3.66174 5.59422L3.89818 5.18283C4.36391 5.78825 4.94302 6.46662 5.60046 7.07968L5.39517 7.4737C4.99633 8.23899 4.86427 9.09469 5.17497 9.90849C5.37525 10.4327 5.74079 10.8822 6.21204 11.2253C6.66961 11.5586 7.21112 11.7832 7.77808 11.9011C8.14739 11.978 8.52366 12.0096 8.89747 11.9988C8.81025 12.4557 8.77215 12.9295 8.7697 13.4124L5.43357 15.1929L8.00798 16.5263C8.21375 16.6329 8.40963 16.755 8.59362 16.8914C10.7161 18.6523 11.9922 23.8615 12.8691 26.406C13.7461 23.8615 15.0221 18.6523 17.1447 16.8914C17.3286 16.755 17.5245 16.6329 17.7303 16.5263L20.3047 15.1929L16.9685 13.4124C16.966 12.9295 16.9279 12.4557 16.8407 11.9988C17.2145 12.0096 17.5908 11.978 17.9601 11.9011C18.527 11.7832 19.0687 11.5586 19.5261 11.2253C19.9973 10.8822 20.3629 10.4327 20.5631 9.90849C20.8739 9.09469 20.7417 8.23909 20.343 7.4737L20.1376 7.07959Z" fill="black"/>
</g>
<defs>
<clipPath id="clip0_395_15">
<rect width="25.738" height="28.3126" fill="white"/>
</clipPath>
</defs>
</svg>
