<svg width="12" height="22" viewBox="0 0 12 22" fill="none" xmlns="http://www.w3.org/2000/svg">
<path d="M5.67865 21.6291C5.97155 21.922 6.44642 21.922 6.73931 21.6291L11.5123 16.8561C11.8052 16.5632 11.8052 16.0883 11.5123 15.7954C11.2194 15.5025 10.7445 15.5025 10.4516 15.7954L6.20898 20.0381L1.96634 15.7954C1.67345 15.5025 1.19858 15.5025 0.905684 15.7954C0.61279 16.0883 0.61279 16.5632 0.905684 16.8561L5.67865 21.6291ZM6.73931 0.568409C6.44642 0.275515 5.97155 0.275515 5.67865 0.568409L0.905684 5.34138C0.61279 5.63427 0.61279 6.10915 0.905684 6.40204C1.19858 6.69493 1.67345 6.69493 1.96634 6.40204L6.20898 2.1594L10.4516 6.40204C10.7445 6.69493 11.2194 6.69493 11.5123 6.40204C11.8052 6.10915 11.8052 5.63427 11.5123 5.34138L6.73931 0.568409ZM6.95898 21.0987L6.95898 1.09874H5.45898L5.45898 21.0987H6.95898Z" fill="white"/>
</svg>
