<svg width="2442" height="1286" viewBox="0 0 2442 1286" fill="none" xmlns="http://www.w3.org/2000/svg">
<g opacity="0.5">
<path d="M2442 352.592C2442 391.402 2442 430.196 2442 469.006C2439.56 469.207 2437.01 469.253 2434.69 469.655C2358.63 482.694 2282.81 496.151 2206.49 508.727C2140.06 519.681 2073.3 530.094 2006.26 539.982C1916.02 553.284 1825.55 566.215 1734.84 578.637C1655.2 589.529 1575.18 599.633 1495.22 609.814C1443.41 616.396 1391.39 622.498 1339.43 628.771C1308.52 632.51 1277.55 636.14 1246.64 639.848C1244.76 640.08 1243.06 640.636 1241.27 641.053C1241.47 641.424 1241.68 641.81 1241.89 642.181C1254.04 641.81 1266.19 641.501 1278.32 641.053C1298.78 640.281 1319.21 639.4 1339.64 638.597C1358.63 637.855 1377.62 637.175 1396.59 636.418C1416.61 635.615 1436.6 634.719 1456.62 633.9C1475.17 633.143 1493.75 632.432 1512.3 631.691C1532.12 630.887 1551.93 630.053 1571.75 629.219C1589.24 628.493 1606.74 627.782 1624.23 627.01C1642.55 626.206 1660.87 625.341 1679.21 624.538C1696.71 623.765 1714.21 623.055 1731.7 622.267C1753.8 621.262 1775.91 620.212 1798.01 619.192C1814.45 618.435 1830.89 617.74 1847.3 616.983C1869.4 615.948 1891.51 614.882 1913.61 613.831C1929.2 613.089 1944.79 612.379 1960.38 611.606C1980.37 610.602 2000.33 609.505 2020.32 608.516C2040.1 607.528 2059.89 606.662 2079.67 605.658C2104.07 604.422 2128.46 603.094 2152.85 601.796C2170.73 600.838 2188.61 599.911 2206.49 598.907C2228.36 597.686 2250.2 596.388 2272.04 595.137C2293.46 593.916 2314.92 592.758 2336.35 591.522C2357.34 590.301 2378.36 589.065 2399.32 587.736C2413.55 586.84 2427.76 585.774 2442 584.786C2442 604.19 2442 623.595 2442 643C1627.99 643 814.01 643 0 643C0.205484 641.671 0.587098 640.327 0.587098 638.998C0.616453 622.498 0.616452 605.998 0.616452 589.482C0.616452 588.185 0.85129 586.887 0.96871 585.481C2.61258 585.481 3.64 585.435 4.63806 585.481C17.6716 586.238 30.6758 587.026 43.7094 587.783C64.2871 588.988 84.8942 590.162 105.472 591.367C126.666 592.603 147.89 593.901 169.084 595.121C191.159 596.388 213.204 597.624 235.279 598.829C253.978 599.849 272.706 600.838 291.406 601.827C309.899 602.8 328.422 603.758 346.915 604.716C366.906 605.751 386.867 606.832 406.858 607.837C426.849 608.841 446.869 609.768 466.859 610.757C487.496 611.776 508.103 612.842 528.739 613.846C549.581 614.851 570.423 615.778 591.265 616.751C613.78 617.802 636.325 618.852 658.869 619.872C675.514 620.629 692.158 621.309 708.802 622.05C732.168 623.101 755.535 624.198 778.931 625.233C796.426 626.005 813.922 626.685 831.388 627.442C850.351 628.261 869.314 629.142 888.278 629.93C906.389 630.687 924.531 631.351 942.672 632.077C962.898 632.896 983.123 633.792 1003.38 634.611C1021.72 635.352 1040.07 636.017 1058.42 636.758C1078.64 637.577 1098.9 638.458 1119.12 639.277C1140.41 640.142 1161.69 640.992 1183 641.749C1188.69 641.949 1194.45 641.78 1200.17 641.78C1200.29 641.44 1200.38 641.084 1200.5 640.744C1197.68 640.296 1194.92 639.74 1192.07 639.4C1144.02 633.684 1095.85 628.215 1047.88 622.267C962.252 611.637 876.594 601.008 791.201 589.869C720.368 580.63 649.623 571.19 579.318 560.9C469.061 544.755 358.892 528.379 249.311 510.998C167.88 498.082 87.4481 483.389 6.54613 469.593C1.76129 468.774 0.499033 467.507 0.499033 465.035C0.616452 428.79 0.587098 392.561 0.587098 356.316C0.587098 355.358 0.85129 354.416 1.02742 353.18C2.99419 353.581 4.40323 353.798 5.63613 354.153C74.4439 373.403 143.017 392.901 212.147 411.842C262.52 425.639 313.304 439.033 364.499 451.934C431.692 468.882 499.179 485.568 567.136 501.666C644.926 520.098 723.01 538.236 801.651 555.663C882.025 573.492 963.074 590.471 1044.06 607.497C1094 617.987 1144.4 627.859 1194.62 637.979C1196.89 638.427 1199.38 638.551 1201.76 638.829C1201.99 638.473 1202.26 638.118 1202.49 637.778C1200.73 637.114 1199.03 636.372 1197.15 635.816C1186.82 632.741 1176.42 629.744 1166.12 626.654C1096.11 605.782 1025.42 585.481 956.263 563.867C844.275 528.873 732.286 493.818 622.088 457.295C512.946 421.127 405.156 383.801 298.421 345.686C199.936 310.523 103.681 273.645 6.34065 237.585C1.99613 235.978 0.469678 234.233 0.469678 231.498C0.616453 195.145 0.557743 158.792 0.587098 122.439C0.587098 121.481 0.792581 120.538 0.939355 118.978C390.742 299.183 789.352 472.853 1203.7 636.341C1204.52 635.862 1205.34 635.383 1206.19 634.904C804.675 423.584 403.13 212.263 0.410969 0.339895C4.49129 0.339895 6.57548 0.339895 8.68903 0.339895C77.1445 0.339895 145.629 0.370781 214.085 0.278083C219.985 0.262633 223.919 1.26685 227.676 3.55341C284.478 37.9907 341.837 72.1654 398.169 106.819C472.936 152.813 547.409 198.961 621.119 245.418C691.16 289.573 760.466 334.068 829.362 378.718C881.819 412.738 933.337 447.144 984.796 481.582C1029.06 511.183 1072.8 541.017 1116.48 570.85C1145.57 590.718 1174.13 610.787 1202.99 630.748C1204.61 631.876 1206.66 632.819 1208.51 633.854C1209.3 633.529 1210.09 633.205 1210.89 632.88C982.507 413.449 727.883 202.746 446.487 0.463471C448.982 0.401673 450.391 0.339895 451.83 0.339895C521.577 0.339895 591.324 0.355331 661.042 0.278083C665.797 0.278083 668.234 1.22052 670.377 3.32167C700.142 32.5988 731.288 61.5051 759.674 91.1376C811.133 144.856 862.181 198.698 911.057 253.066C951.332 297.854 989.287 343.261 1026.39 388.807C1066.11 437.535 1104.15 486.634 1141.96 535.779C1165.65 566.54 1187.55 597.671 1210.33 628.616C1211.24 629.852 1212.68 630.965 1213.88 632.139C1214.82 631.953 1215.79 631.768 1216.73 631.583C1127.49 418.547 1025.16 207.366 890.098 0.339895C893.649 0.339895 896.145 0.339895 898.64 0.339895C965.187 0.339895 1031.76 0.339895 1098.31 0.339895C1109.88 0.339895 1109.85 0.339891 1111.08 6.22622C1111.37 7.55489 1111.9 8.86811 1112.2 10.1813C1115.01 23.2209 1117.86 36.2449 1120.59 49.2845C1123.35 62.4321 1126.05 75.5798 1128.75 88.7429C1131.07 100.129 1133.36 111.516 1135.62 122.918C1138.03 134.968 1140.44 147.019 1142.73 159.07C1145.04 171.244 1147.19 183.419 1149.45 195.593C1151.44 206.439 1153.53 217.284 1155.49 228.13C1157.37 238.528 1159.13 248.941 1160.98 259.354C1162.95 270.431 1165.01 281.493 1166.91 292.57C1168.85 303.756 1170.64 314.957 1172.49 326.158C1174.46 337.9 1176.45 349.642 1178.36 361.383C1179.8 370.143 1181.12 378.903 1182.53 387.648C1184.53 400.054 1186.58 412.475 1188.52 424.882C1189.96 434.074 1191.28 443.282 1192.69 452.49C1194.24 462.687 1195.89 472.884 1197.41 483.08C1198.85 492.736 1200.17 502.377 1201.58 512.033C1203.14 522.446 1204.78 532.875 1206.31 543.288C1207.36 550.503 1208.19 557.718 1209.24 564.933C1210.74 575.238 1212.41 585.543 1213.91 595.863C1215.38 605.967 1216.67 616.071 1218.17 626.16C1218.43 627.921 1219.31 629.667 1219.9 631.413C1220.46 631.413 1221.01 631.413 1221.6 631.428C1222.01 630.671 1222.66 629.914 1222.78 629.142C1224.19 620.273 1225.56 611.405 1226.86 602.537C1228.5 591.444 1230.09 580.367 1231.67 569.274C1233.08 559.402 1234.34 549.529 1235.78 539.657C1237.75 526.015 1239.83 512.373 1241.86 498.731C1242.83 492.072 1243.71 485.429 1244.73 478.77C1246.26 468.789 1247.93 458.824 1249.49 448.859C1250.93 439.543 1252.25 430.227 1253.72 420.911C1255.65 408.489 1257.71 396.083 1259.68 383.662C1261.08 374.902 1262.41 366.142 1263.87 357.397C1265.81 345.764 1267.86 334.146 1269.83 322.512C1271.68 311.435 1273.41 300.357 1275.29 289.28C1277.23 277.986 1279.31 266.692 1281.31 255.399C1282.72 247.318 1284.01 239.223 1285.48 231.143C1287.42 220.513 1289.47 209.899 1291.47 199.285C1293.4 188.996 1295.34 178.706 1297.31 168.417C1299.57 156.691 1301.86 144.964 1304.15 133.238C1306 123.721 1307.73 114.204 1309.64 104.702C1311.99 93.0997 1314.45 81.497 1316.92 69.8943C1319.24 58.9559 1321.58 48.0176 1323.93 37.0792C1326.25 26.249 1328.86 15.4342 1330.74 4.58856C1331.3 1.25143 1333.44 0.278098 1339.67 0.293548C1408.12 0.386246 1476.61 0.355336 1545.06 0.355336C1547.03 0.355336 1549.03 0.478941 1551.43 0.556189C1550.79 1.73036 1550.46 2.48739 1549.99 3.19807C1544.36 11.9426 1538.66 20.6871 1533.06 29.4471C1487.44 100.562 1445.4 172.248 1407.48 244.599C1381.64 293.837 1355.96 343.122 1332.47 392.684C1301.83 457.357 1273.35 522.307 1244.12 587.149C1237.86 601.008 1232.32 614.943 1226.56 628.864C1226.15 629.883 1226.5 631.011 1226.5 632.077C1227.21 632.108 1227.91 632.139 1228.62 632.154C1229.65 630.98 1230.79 629.821 1231.7 628.616C1257.3 593.824 1282.01 558.846 1308.7 524.269C1348.3 472.992 1387.9 421.683 1430.05 370.978C1475.96 315.776 1524.04 261.069 1572.66 206.516C1602.69 172.82 1634.77 139.634 1667.21 106.572C1701 72.1191 1736.37 38.0989 1770.86 3.83151C1773.5 1.20507 1776.53 0.262642 1782.22 0.262642C1850.91 0.370789 1919.57 0.32443 1988.26 0.32443C1990.32 0.32443 1992.37 0.32443 1995.31 0.32443C1994.05 1.37501 1993.34 2.0239 1992.52 2.62644C1974.64 15.6196 1956.41 28.4892 1938.89 41.6369C1879.44 86.2555 1819.41 130.673 1761.17 175.725C1711.04 214.503 1662.25 253.807 1614.22 293.328C1563.67 334.918 1513.65 376.694 1465.39 419.026C1407.1 470.134 1350.7 521.859 1293.87 573.43C1273.38 592.031 1254.04 610.988 1234.22 629.791C1233.08 630.887 1232.49 632.154 1231.67 633.344C1232.35 633.529 1233.02 633.715 1233.7 633.9C1235.31 632.973 1237.1 632.093 1238.54 631.088C1286.74 597.872 1334.53 564.469 1383.2 531.438C1439.56 493.215 1495.95 455.008 1553.66 417.358C1638.91 361.739 1725.13 306.537 1811.31 251.32C1849.24 227.017 1887.84 203.04 1926.5 179.062C1969.8 152.195 2013.27 125.405 2057.04 98.7543C2109.53 66.7889 2162.42 34.9935 2215.06 3.08994C2218.4 1.06603 2221.99 0.262633 2227.12 0.278083C2296.02 0.355331 2364.91 0.339888 2433.81 0.308989C2436.54 0.308989 2439.27 0.108148 2441.97 0C2441.97 0.216295 2441.97 0.448029 2441.97 0.664325C2439.59 1.76125 2437.07 2.78094 2434.84 3.95511C2220.34 116.769 2005.88 229.582 1791.38 342.411C1677.63 402.248 1563.85 462.084 1450.13 521.936C1399.37 548.649 1348.68 575.392 1297.98 602.136C1278.84 612.24 1259.68 622.328 1240.57 632.448C1238.98 633.282 1237.86 634.364 1236.51 635.321C1236.95 635.569 1237.42 635.8 1237.86 636.048C1239.77 635.476 1241.8 635.013 1243.53 634.333C1295.96 613.352 1348.62 592.541 1400.7 571.298C1475.52 540.769 1550.29 510.179 1624.35 479.141C1704.37 445.6 1783.86 411.703 1863.06 377.605C1928 349.657 1992.28 321.307 2056.6 292.957C2102.57 272.702 2148.25 252.262 2193.78 231.745C2245.73 208.323 2297.49 184.747 2349.18 161.156C2380.24 146.988 2411.03 132.666 2441.94 118.422C2441.94 157.448 2441.94 196.473 2441.94 235.499C2439.09 236.426 2436.13 237.261 2433.4 238.28C2368.38 262.675 2303.97 287.534 2238.28 311.404C2154.79 341.731 2070.63 371.565 1986.06 401.058C1848.86 448.906 1709.13 494.637 1567.43 538.699C1509.1 556.837 1450.45 574.712 1391.62 592.418C1343.1 607.018 1294.11 621.201 1245.38 635.6C1243.27 636.218 1241.5 637.175 1239.6 637.979C1239.92 638.257 1240.24 638.551 1240.57 638.829C1242.71 638.551 1244.97 638.396 1247.02 637.979C1300.01 627.303 1353.11 616.782 1405.89 605.859C1532.18 579.718 1657.9 552.82 1781.69 523.543C1873.81 501.759 1965.86 479.882 2056.86 456.862C2143.46 434.955 2228.88 411.734 2314.42 388.683C2357.4 377.111 2399.49 364.659 2442 352.592Z" fill="url(#paint0_radial_395_5)"/>
<path d="M2442 933.408C2442 894.598 2442 855.804 2442 816.994C2439.56 816.793 2437.01 816.747 2434.69 816.345C2358.63 803.306 2282.81 789.849 2206.49 777.273C2140.06 766.319 2073.3 755.906 2006.26 746.018C1916.02 732.716 1825.55 719.785 1734.84 707.363C1655.2 696.471 1575.18 686.367 1495.22 676.186C1443.41 669.604 1391.39 663.502 1339.43 657.229C1308.52 653.49 1277.55 649.86 1246.64 646.152C1244.76 645.92 1243.06 645.364 1241.27 644.947C1241.47 644.576 1241.68 644.19 1241.89 643.819C1254.04 644.19 1266.19 644.499 1278.32 644.947C1298.78 645.719 1319.21 646.6 1339.64 647.403C1358.63 648.145 1377.62 648.825 1396.59 649.582C1416.61 650.385 1436.6 651.281 1456.62 652.1C1475.17 652.857 1493.75 653.568 1512.3 654.309C1532.12 655.113 1551.93 655.947 1571.75 656.781C1589.24 657.507 1606.74 658.218 1624.23 658.99C1642.55 659.794 1660.87 660.659 1679.21 661.462C1696.71 662.235 1714.21 662.945 1731.7 663.733C1753.8 664.738 1775.91 665.788 1798.01 666.808C1814.45 667.565 1830.89 668.26 1847.3 669.017C1869.4 670.052 1891.51 671.118 1913.61 672.169C1929.2 672.911 1944.79 673.621 1960.38 674.394C1980.37 675.398 2000.33 676.495 2020.32 677.484C2040.1 678.472 2059.89 679.338 2079.67 680.342C2104.07 681.578 2128.46 682.906 2152.85 684.204C2170.73 685.162 2188.61 686.089 2206.49 687.093C2228.36 688.314 2250.2 689.612 2272.04 690.863C2293.46 692.084 2314.92 693.242 2336.35 694.478C2357.34 695.699 2378.36 696.935 2399.32 698.264C2413.55 699.16 2427.76 700.226 2442 701.214C2442 681.81 2442 662.405 2442 643C1627.99 643 814.01 643 0 643C0.205484 644.329 0.587098 645.673 0.587098 647.002C0.616453 663.502 0.616452 680.002 0.616452 696.518C0.616452 697.815 0.85129 699.113 0.96871 700.519C2.61258 700.519 3.64 700.565 4.63806 700.519C17.6716 699.762 30.6758 698.974 43.7094 698.217C64.2871 697.012 84.8942 695.838 105.472 694.633C126.666 693.397 147.89 692.099 169.084 690.879C191.159 689.612 213.204 688.376 235.279 687.171C253.978 686.151 272.706 685.162 291.406 684.173C309.899 683.2 328.422 682.242 346.915 681.284C366.906 680.249 386.867 679.168 406.858 678.163C426.849 677.159 446.869 676.232 466.859 675.243C487.496 674.224 508.103 673.158 528.739 672.154C549.581 671.149 570.423 670.222 591.265 669.249C613.78 668.198 636.325 667.148 658.869 666.128C675.514 665.371 692.158 664.691 708.802 663.95C732.168 662.899 755.535 661.802 778.931 660.767C796.426 659.995 813.922 659.315 831.388 658.558C850.351 657.739 869.314 656.858 888.278 656.07C906.389 655.313 924.531 654.649 942.672 653.923C962.898 653.104 983.123 652.208 1003.38 651.389C1021.72 650.648 1040.07 649.983 1058.42 649.242C1078.64 648.423 1098.9 647.542 1119.12 646.723C1140.41 645.858 1161.69 645.008 1183 644.251C1188.69 644.051 1194.45 644.22 1200.17 644.22C1200.29 644.56 1200.38 644.916 1200.5 645.256C1197.68 645.704 1194.92 646.26 1192.07 646.6C1144.02 652.316 1095.85 657.785 1047.88 663.733C962.252 674.363 876.594 684.992 791.201 696.131C720.368 705.37 649.623 714.81 579.318 725.1C469.061 741.245 358.892 757.621 249.311 775.002C167.88 787.918 87.4481 802.611 6.54613 816.407C1.76129 817.226 0.499033 818.493 0.499033 820.965C0.616452 857.21 0.587098 893.439 0.587098 929.684C0.587098 930.642 0.85129 931.584 1.02742 932.82C2.99419 932.419 4.40323 932.203 5.63613 931.847C74.4439 912.597 143.017 893.099 212.147 874.158C262.52 860.361 313.304 846.967 364.499 834.066C431.692 817.118 499.179 800.432 567.136 784.334C644.926 765.902 723.01 747.764 801.651 730.337C882.025 712.508 963.074 695.529 1044.06 678.503C1094 668.013 1144.4 658.141 1194.62 648.021C1196.89 647.573 1199.38 647.45 1201.76 647.171C1201.99 647.527 1202.26 647.882 1202.49 648.222C1200.73 648.886 1199.03 649.628 1197.15 650.184C1186.82 653.259 1176.42 656.256 1166.12 659.346C1096.11 680.218 1025.42 700.519 956.263 722.133C844.275 757.127 732.286 792.182 622.088 828.705C512.946 864.873 405.156 902.199 298.421 940.314C199.936 975.477 103.681 1012.36 6.34065 1048.41C1.99613 1050.02 0.469678 1051.77 0.469678 1054.5C0.616453 1090.86 0.557743 1127.21 0.587098 1163.56C0.587098 1164.52 0.792581 1165.46 0.939355 1167.02C390.742 986.817 789.352 813.147 1203.7 649.659C1204.52 650.138 1205.34 650.617 1206.19 651.096C804.675 862.416 403.13 1073.74 0.410969 1285.66C4.49129 1285.66 6.57548 1285.66 8.68903 1285.66C77.1445 1285.66 145.629 1285.63 214.085 1285.72C219.985 1285.74 223.919 1284.73 227.676 1282.45C284.478 1248.01 341.837 1213.83 398.169 1179.18C472.936 1133.19 547.409 1087.04 621.119 1040.58C691.16 996.427 760.466 951.932 829.362 907.282C881.819 873.262 933.337 838.856 984.796 804.418C1029.06 774.817 1072.8 744.983 1116.48 715.15C1145.57 695.282 1174.13 675.213 1202.99 655.252C1204.61 654.124 1206.66 653.181 1208.51 652.146C1209.3 652.471 1210.09 652.795 1210.89 653.12C982.507 872.551 727.883 1083.25 446.487 1285.54C448.982 1285.6 450.391 1285.66 451.83 1285.66C521.577 1285.66 591.324 1285.64 661.042 1285.72C665.797 1285.72 668.234 1284.78 670.377 1282.68C700.142 1253.4 731.288 1224.49 759.674 1194.86C811.133 1141.14 862.181 1087.3 911.057 1032.93C951.332 988.146 989.287 942.739 1026.39 897.194C1066.11 848.465 1104.15 799.366 1141.96 750.221C1165.65 719.46 1187.55 688.329 1210.33 657.384C1211.24 656.148 1212.68 655.035 1213.88 653.861C1214.82 654.047 1215.79 654.232 1216.73 654.417C1127.49 867.453 1025.16 1078.63 890.098 1285.66C893.649 1285.66 896.145 1285.66 898.64 1285.66C965.187 1285.66 1031.76 1285.66 1098.31 1285.66C1109.88 1285.66 1109.85 1285.66 1111.08 1279.77C1111.37 1278.45 1111.9 1277.13 1112.2 1275.82C1115.01 1262.78 1117.86 1249.76 1120.59 1236.72C1123.35 1223.57 1126.05 1210.42 1128.75 1197.26C1131.07 1185.87 1133.36 1174.48 1135.62 1163.08C1138.03 1151.03 1140.44 1138.98 1142.73 1126.93C1145.04 1114.76 1147.19 1102.58 1149.45 1090.41C1151.44 1079.56 1153.53 1068.72 1155.49 1057.87C1157.37 1047.47 1159.13 1037.06 1160.98 1026.65C1162.95 1015.57 1165.01 1004.51 1166.91 993.43C1168.85 982.244 1170.64 971.043 1172.49 959.842C1174.46 948.1 1176.45 936.358 1178.36 924.617C1179.8 915.857 1181.12 907.097 1182.53 898.352C1184.53 885.946 1186.58 873.525 1188.52 861.119C1189.96 851.926 1191.28 842.718 1192.69 833.51C1194.24 823.313 1195.89 813.116 1197.41 802.92C1198.85 793.264 1200.17 783.623 1201.58 773.967C1203.14 763.554 1204.78 753.125 1206.31 742.712C1207.36 735.497 1208.19 728.282 1209.24 721.067C1210.74 710.762 1212.41 700.457 1213.91 690.137C1215.38 680.033 1216.67 669.929 1218.17 659.84C1218.43 658.079 1219.31 656.333 1219.9 654.587C1220.46 654.587 1221.01 654.587 1221.6 654.572C1222.01 655.329 1222.66 656.086 1222.78 656.858C1224.19 665.727 1225.56 674.595 1226.86 683.463C1228.5 694.556 1230.09 705.633 1231.67 716.726C1233.08 726.598 1234.34 736.471 1235.78 746.343C1237.75 759.985 1239.83 773.627 1241.86 787.269C1242.83 793.928 1243.71 800.571 1244.73 807.23C1246.26 817.211 1247.93 827.176 1249.49 837.141C1250.93 846.457 1252.25 855.773 1253.72 865.089C1255.65 877.511 1257.71 889.917 1259.68 902.338C1261.08 911.098 1262.41 919.858 1263.87 928.603C1265.81 940.236 1267.86 951.854 1269.83 963.488C1271.68 974.565 1273.41 985.643 1275.29 996.72C1277.23 1008.01 1279.31 1019.31 1281.31 1030.6C1282.72 1038.68 1284.01 1046.78 1285.48 1054.86C1287.42 1065.49 1289.47 1076.1 1291.47 1086.71C1293.4 1097 1295.34 1107.29 1297.31 1117.58C1299.57 1129.31 1301.86 1141.04 1304.15 1152.76C1306 1162.28 1307.73 1171.8 1309.64 1181.3C1311.99 1192.9 1314.45 1204.5 1316.92 1216.11C1319.24 1227.04 1321.58 1237.98 1323.93 1248.92C1326.25 1259.75 1328.86 1270.57 1330.74 1281.41C1331.3 1284.75 1333.44 1285.72 1339.67 1285.71C1408.12 1285.61 1476.61 1285.64 1545.06 1285.64C1547.03 1285.64 1549.03 1285.52 1551.43 1285.44C1550.79 1284.27 1550.46 1283.51 1549.99 1282.8C1544.36 1274.06 1538.66 1265.31 1533.06 1256.55C1487.44 1185.44 1445.4 1113.75 1407.48 1041.4C1381.64 992.163 1355.96 942.878 1332.47 893.316C1301.83 828.643 1273.35 763.693 1244.12 698.851C1237.86 684.992 1232.32 671.057 1226.56 657.137C1226.15 656.117 1226.5 654.989 1226.5 653.923C1227.21 653.892 1227.91 653.861 1228.62 653.846C1229.65 655.02 1230.79 656.179 1231.7 657.384C1257.3 692.176 1282.01 727.154 1308.7 761.731C1348.3 813.008 1387.9 864.317 1430.05 915.022C1475.96 970.224 1524.04 1024.93 1572.66 1079.48C1602.69 1113.18 1634.77 1146.37 1667.21 1179.43C1701 1213.88 1736.37 1247.9 1770.86 1282.17C1773.5 1284.79 1776.53 1285.74 1782.22 1285.74C1850.91 1285.63 1919.57 1285.68 1988.26 1285.68C1990.32 1285.68 1992.37 1285.68 1995.31 1285.68C1994.05 1284.62 1993.34 1283.98 1992.52 1283.37C1974.64 1270.38 1956.41 1257.51 1938.89 1244.36C1879.44 1199.74 1819.41 1155.33 1761.17 1110.28C1711.04 1071.5 1662.25 1032.19 1614.22 992.672C1563.67 951.082 1513.65 909.306 1465.39 866.974C1407.1 815.866 1350.7 764.141 1293.87 712.57C1273.38 693.969 1254.04 675.012 1234.22 656.209C1233.08 655.113 1232.49 653.846 1231.67 652.656C1232.35 652.471 1233.02 652.285 1233.7 652.1C1235.31 653.027 1237.1 653.907 1238.54 654.912C1286.74 688.128 1334.53 721.531 1383.2 754.562C1439.56 792.785 1495.95 830.992 1553.66 868.643C1638.91 924.261 1725.13 979.463 1811.31 1034.68C1849.24 1058.98 1887.84 1082.96 1926.5 1106.94C1969.8 1133.81 2013.27 1160.59 2057.04 1187.25C2109.53 1219.21 2162.42 1251.01 2215.06 1282.91C2218.4 1284.93 2221.99 1285.74 2227.12 1285.72C2296.02 1285.64 2364.91 1285.66 2433.81 1285.69C2436.54 1285.69 2439.27 1285.89 2441.97 1286C2441.97 1285.78 2441.97 1285.55 2441.97 1285.34C2439.59 1284.24 2437.07 1283.22 2434.84 1282.04C2220.34 1169.23 2005.88 1056.42 1791.38 943.589C1677.63 883.752 1563.85 823.916 1450.13 764.064C1399.37 737.351 1348.68 710.608 1297.98 683.864C1278.84 673.76 1259.68 663.672 1240.57 653.552C1238.98 652.718 1237.86 651.636 1236.51 650.679C1236.95 650.431 1237.42 650.2 1237.86 649.952C1239.77 650.524 1241.8 650.987 1243.53 651.667C1295.96 672.648 1348.62 693.459 1400.7 714.702C1475.52 745.231 1550.29 775.821 1624.35 806.859C1704.37 840.401 1783.86 874.297 1863.06 908.394C1928 936.343 1992.28 964.693 2056.6 993.043C2102.57 1013.3 2148.25 1033.74 2193.78 1054.25C2245.73 1077.68 2297.49 1101.25 2349.18 1124.84C2380.24 1139.01 2411.03 1153.33 2441.94 1167.58C2441.94 1128.55 2441.94 1089.53 2441.94 1050.5C2439.09 1049.57 2436.13 1048.74 2433.4 1047.72C2368.38 1023.32 2303.97 998.466 2238.28 974.596C2154.79 944.269 2070.63 914.435 1986.06 884.942C1848.86 837.094 1709.13 791.363 1567.43 747.301C1509.1 729.163 1450.45 711.288 1391.62 693.582C1343.1 678.982 1294.11 664.799 1245.38 650.4C1243.27 649.782 1241.5 648.825 1239.6 648.021C1239.92 647.743 1240.24 647.45 1240.57 647.171C1242.71 647.45 1244.97 647.604 1247.02 648.021C1300.01 658.697 1353.11 669.218 1405.89 680.141C1532.18 706.282 1657.9 733.18 1781.69 762.457C1873.81 784.241 1965.86 806.118 2056.86 829.138C2143.46 851.045 2228.88 874.266 2314.42 897.317C2357.4 908.889 2399.49 921.341 2442 933.408Z" fill="url(#paint1_radial_395_5)"/>
</g>
<defs>
<radialGradient id="paint0_radial_395_5" cx="0" cy="0" r="1" gradientUnits="userSpaceOnUse" gradientTransform="translate(1221 643) rotate(90) scale(643 1221)">
<stop stop-color="#FF9202"/>
<stop offset="1" stop-color="#FF9202" stop-opacity="0"/>
</radialGradient>
<radialGradient id="paint1_radial_395_5" cx="0" cy="0" r="1" gradientUnits="userSpaceOnUse" gradientTransform="translate(1221 643) rotate(90) scale(643 1221)">
<stop stop-color="#FF9202"/>
<stop offset="1" stop-color="#FF9202" stop-opacity="0"/>
</radialGradient>
</defs>
</svg>
