<svg width="200" height="200" viewBox="-5 -5 210 210" fill="none" xmlns="http://www.w3.org/2000/svg">
<circle cx="100" cy="100" r="40" fill="#333" fill-opacity="0.69"/>
<path fill-rule="evenodd" clip-rule="evenodd" d="M158.374 181.203C141.948 193.032 121.788 200 100 200C44.7715 200 0 155.229 0 100C0 44.7715 44.7715 0 100 0C155.229 0 200 44.7715 200 100C200 121.788 193.032 141.948 181.203 158.375L155.213 132.385C160.798 122.885 164 111.816 164 100C164 64.6538 135.346 36 100 36C64.6538 36 36 64.6538 36 100C36 135.346 64.6538 164 100 164C111.816 164 122.884 160.798 132.384 155.214L158.374 181.203Z" fill="black"/>
</svg>
